<svg width="60" height="60" viewBox="0 0 60 60" xmlns="http://www.w3.org/2000/svg">
  <defs>
    <pattern id="dots" width="20" height="20" patternUnits="userSpaceOnUse">
      <circle cx="2" cy="2" r="1" fill="#337778" opacity="0.3" />
    </pattern>
    
    <pattern id="tealPattern" width="60" height="60" patternUnits="userSpaceOnUse">
      <rect width="60" height="60" fill="url(#dots)" />
      <path d="M36 34v-4h-2v4h-4v2h4v4h2v-4h4v-2h-4zm0-30V0h-2v4h-4v2h4v4h2V6h4V4h-4zM6 34v-4H4v4H0v2h4v4h2v-4h4v-2H6zM6 4V0H4v4H0v2h4v4h2V6h4V4H6z" fill="#337778" opacity="0.15" />
    </pattern>
  </defs>
  
  <rect width="60" height="60" fill="url(#tealPattern)" />
</svg>